<svg id="svgicon-svg-source" height="0" version="1.1" 
  xmlns="http://www.w3.org/2000/svg" style="position:absolute; margin-left: -100%" 
  xmlns:xlink="http://www.w3.org/1999/xlink">
  <g id="svgicon-transfer" data-iconmelon="Icon Set:ef9c6dd02252cd699624439f926f1dc9">
    <path d="M29.712,15.539c-3.473-4.836-10.704-9.808-14.456-12.269
        c-0.218-0.174-0.55-0.27-0.854-0.271c-0.177,0-0.438,0.034-0.608,0.107c-0.468,0.195-0.908,0.687-0.903,1.211
        c0.59,2.51,1.748,4.982,2.781,7.682H5.7C4.209,12,3,13.212,3,14.707v3.609c0,1.495,1.209,2.707,2.7,2.707h10.137
        c-1.07,2.698-2.324,5.148-2.947,7.658c-0.005,0.524,0.435,1.016,0.903,1.21c0.17,0.075,0.51,0.108,0.688,0.108
        c0.304,0,0.594-0.096,0.812-0.269c3.75-2.457,10.974-7.44,14.429-12.271c0.188-0.255,0.277-0.6,0.278-0.96
        C29.999,16.141,29.899,15.794,29.712,15.539z"></path>
  </g>
  <g id="svgicon-selecting-from-list" data-iconmelon="Icon Set:d16bbd7b53f109d5dbb01ba4aac4e8c7">
    <path d="M31.999,4.618c0-0.635-0.912-2.173-9.33,4.162 c-1.883,1.417-6.953,6.373-10.797,10.201c-2.506-1.908-5.707-4.045-7.867-4.374c-2.587-0.393-3.452,0.496-3.741,1.181
        c-0.168,0.405,0.01,0.85,0.506,1.445l9.773,11.206c1.453,1.451,2.158,1.203,3.516-0.572c2.383-3.797,7.152-11.002,11.875-15.801 C32.192,5.704,31.999,5.252,31.999,4.618z"></path>
  </g>
  <g id="svgicon-settings" data-iconmelon="Icon Set:0343914688bcd076a0258708843f4e10">
    <path d="M27.438,16.841c0.021-0.276,0.043-0.552,0.043-0.833 c0-0.316-0.016-0.627-0.042-0.937l2.937-3.207c-0.688-2.338-1.938-4.436-3.6-6.142l-4.332,0.899
        c-0.486-0.328-0.996-0.623-1.532-0.875l-1.337-4.129c-1.15-0.28-2.346-0.445-3.583-0.445c-1.239,0-2.437,0.166-3.588,0.446
        l-1.375,4.148C10.484,6.026,9.967,6.33,9.475,6.666l-4.29-0.92c-1.654,1.706-2.898,3.799-3.582,6.132l2.934,3.247
        c-0.022,0.292-0.036,0.586-0.036,0.883c0,0.324,0.018,0.645,0.044,0.962l-2.938,3.207c0.686,2.328,1.929,4.416,3.581,6.119
        l4.351-0.903c0.499,0.336,1.021,0.638,1.572,0.894l1.343,4.145c1.136,0.273,2.317,0.434,3.538,0.434
        c1.248,0,2.453-0.168,3.612-0.452l1.384-4.175c0.541-0.261,1.061-0.559,1.551-0.896l4.287,0.919
        c1.651-1.713,2.89-3.812,3.566-6.151L27.438,16.841z M15.991,21.012c-2.765,0-5.006-2.24-5.006-5.003
        c0-2.764,2.241-5.004,5.006-5.004c2.765,0,5.005,2.24,5.005,5.004C20.996,18.771,18.756,21.012,15.991,21.012z"></path>
  </g>
  <g id="svgicon-close-1" data-iconmelon="Icon Set:1b5807dd27bfa5311d5960c870719abc">
    <path d="M29.722,25.343c-0.456-0.986-2.695-6.55-9.495-12.065
        c4.55-4.43,7.774-7.304,7.91-7.41c2.638-2.074,0.443-3.771-1.333-3.105c-3.018,1.129-6.994,2.906-11.583,7.038
        c-2.263-1.348-4.854-2.63-7.834-3.767C2.429,4.142,0.254,6.346,3.625,8.268c2.515,1.434,5.213,3.299,7.864,5.301
        c-2.456,2.756-5.043,6.219-7.72,10.61c-2.769,4.542,0.319,6.128,2.5,3.663c3.352-3.79,6.789-7.397,9.918-10.558
        c6.881,5.669,12.329,11.062,11.507,10.166C29.829,29.822,30.392,26.79,29.722,25.343z"></path>
  </g>
  <g id="svgicon-user-2" data-iconmelon="Icon Set:614c83c329259f037d8485cc26bdd620">
    <path d="M27.447,21.032C24.874,27.108,19.628,32,16,32c-3.627,0-8.874-4.892-11.447-10.968
	c-2.499-0.396-2.542-5.399-2.542-5.399c-0.083-0.708,0.33-1.355,0.998-1.729C3.051,5.128,8.85,0,16,0
	c7.15,0,12.949,5.128,12.992,13.904c0.667,0.373,1.08,1.021,0.997,1.729C29.989,15.633,29.946,20.637,27.447,21.032z M26.114,15.08
	c0.037-0.391,0.063-0.781,0.064-1.17c-0.553,0.046-1.111,0.076-1.682,0.076c-4.25,0-8.048-1.343-10.694-3.458
	c0.166,1.455,0.677,3.016,1.938,4.169c0,0-3.278,0.401-6.34-2.886c-1.048,0.943-2.248,1.722-3.567,2.282
	c0.005,0.326,0.036,0.653,0.067,0.98c-0.726,0.218-1.102,1.256-0.837,2.364s1.068,1.865,1.815,1.731
	c1.948,5.132,6.204,9.467,9.123,9.467s7.186-4.334,9.136-9.466c0.743,0.124,1.54-0.63,1.802-1.732
	C27.201,16.338,26.831,15.307,26.114,15.08z M19.999,20C18.895,20,18,19.104,18,18s0.895-2,1.999-2c1.104,0,1.999,0.896,1.999,2
	S21.103,20,19.999,20z M19.999,23.271c0,1.099-2.343,1.822-3.999,1.822c-1.655,0-3.999-0.724-3.999-1.822
	c0-1.098,2.343-0.24,3.999-0.24C17.656,23.031,19.999,22.174,19.999,23.271z M12.001,20c-1.104,0-2-0.896-2-2s0.896-2,2-2
	s2,0.896,2,2S13.105,20,12.001,20z"></path>
  </g>
  <g id="svgicon-plus" data-iconmelon="Icon Set:d03f1fafe75c8ebf457d406240117fb7">
    <path d="M27,12h-7V5c0-1.104-0.896-2-2-2h-4c-1.104,0-2,0.896-2,2v7H5
        c-1.104,0-2,0.896-2,2v4c0,1.104,0.896,2,2,2h7v7c0,1.104,0.896,2,2,2h4c1.104,0,2-0.896,2-2v-7h7c1.104,0,2-0.896,2-2v-4
        C29,12.896,28.104,12,27,12z"></path>
  </g>
  <g id="svgicon-repeat-payment" data-iconmelon="Icon Set:a5c3744010807f39cfd0502e393c167e">
    <path d="M19.881,22.62C18.604,23.486,17.07,24,15.411,24c-4.418,0-8-3.582-8-8
        s3.582-8,8-8c3.727,0,6.849,2.552,7.737,6h-1.84c-0.001,0-0.003,0.001-0.004,0.001c-1.229,0-0.981,1.064-0.011,2.076
        c0.001,0.001,0,0.001,0.001,0.002l3.118,3.455c0.552,0.611,1.445,0.611,1.997,0l3.525-3.907c0.63-0.854,0.66-1.626-0.387-1.626
        c-0.001,0-0.003-0.001-0.004-0.001h-2.313c-0.954-5.673-5.876-10-11.82-10c-6.627,0-12,5.373-12,12c0,6.628,5.373,12,12,12
        c2.69,0,5.163-0.897,7.162-2.396L19.881,22.62z"></path>
  </g>
  <g id="svgicon-messages" data-iconmelon="Icon Set:157747c8d422d5aef89b06528266b0a7">
    <path d="M27.51,6.241C26.041,4.945,21.449,4,16.003,4c-5.394,0-9.956,0.927-11.47,2.204
        C3.072,7.318,2,10.888,2,14.998c0,4.098,1.065,7.659,2.52,8.785c0.646,0.553,1.864,1.039,3.472,1.415l0.011,2.385
        c0.058,1.115,1.07,1.702,2.851,0.672c0.088-0.051,0.169-0.083,0.247-0.107l3.615-2.168c0.424,0.012,0.852,0.02,1.287,0.02
        c5.464,0,10.066-0.952,11.521-2.253c1.434-1.171,2.476-4.7,2.476-8.748C30,10.938,28.951,7.401,27.51,6.241z M20.043,18.004H8.958
        c-0.526,0-0.953-0.447-0.953-1.002C8.005,16.449,8.432,16,8.958,16h11.084c0.526,0,0.954,0.449,0.954,1.002
        C20.997,17.557,20.569,18.004,20.043,18.004z M22.914,13.98H9.057c-0.592,0-1.072-0.443-1.072-0.99c0-0.546,0.479-0.99,1.072-0.99
        h13.857c0.592,0,1.072,0.444,1.072,0.99C23.986,13.537,23.506,13.98,22.914,13.98z"></path>
  </g>
  <g id="svgicon-environment" data-iconmelon="Icon Set:99c33ce3124fbde52f38cb3a717a0e53">
    <path d="M7.007,12.59c1.847,0,4.831-3.363,4.831-6.606S9.675,0.846,7.007,0.846
			S2.176,2.74,2.176,5.983S5.16,12.59,7.007,12.59z M7.007,11.269c-0.719,0-1.302-0.658-1.302-1.013
			c0-0.355,0.583-0.188,1.302-0.188S8.309,9.9,8.309,10.256C8.309,10.61,7.726,11.269,7.007,11.269z M3.741,6.043
			c0-0.076,0.015-0.142,0.018-0.216c0.748-0.403,1.352-1.011,1.784-1.73c0.891,1.133,2.566,1.908,4.514,1.908
			c0.072,0,0.14-0.014,0.212-0.016c0,0.019,0.004,0.035,0.004,0.054c0,0.745-0.237,1.508-0.585,2.202
			c-0.711,0.317-1.68,0.85-2.643,0.85c-0.992,0-1.984-0.525-2.698-0.805C3.987,7.585,3.741,6.805,3.741,6.043z M8.767,15.873
			c0-0.908,0.146-1.72,0.356-2.481c-0.722,0.572-1.489,0.764-2.116,0.764c-0.737,0-1.674-0.229-2.493-1.079
			C2.538,13.513,1,14.202,1,15.913C1,18,3.689,18,7.007,18c0.717,0,1.394-0.004,2.031-0.024C8.869,17.281,8.767,16.576,8.767,15.873
			z M16.007,23.985c2.154,0,5.635-3.923,5.635-7.706c0-3.782-2.522-5.993-5.635-5.993s-5.635,2.211-5.635,5.993
			C10.372,20.062,13.853,23.985,16.007,23.985z M12.281,15.953c0.817-0.483,1.477-1.174,1.959-1.982
			c1.076,1.368,3.101,2.303,5.451,2.303c0.023,0,0.045-0.004,0.068-0.005c0,0.03,0.007,0.056,0.007,0.085
			c0,2.563-2.322,5.373-3.76,5.373s-3.76-2.81-3.76-5.373C12.247,16.213,12.271,16.088,12.281,15.953z M19.186,24.021
			c-1.046,1.157-1.409,1.972-3.179,1.972c-1.773,0-2.138-0.817-3.186-1.978c-2.524,0.596-4.489,1.794-4.489,4.132
			C8.332,31,11.769,31,16.007,31s7.675,0,7.675-2.854C23.682,25.815,21.71,24.62,19.186,24.021z M20.912,11.164l1.744,0.18
			c0.798,0.769,1.655,1.246,2.351,1.246s1.553-0.478,2.351-1.246l3.649-0.376c0,0-0.698-3.659-1.259-6.04
			c-0.03-0.188-0.083-0.359-0.13-0.535c-0.065-0.265-0.129-0.511-0.188-0.715c-0.007-0.024-0.015-0.004-0.023,0.034
			c-0.756-1.834-2.438-2.866-4.4-2.866s-3.645,1.032-4.4,2.866c-0.009-0.038-0.017-0.059-0.023-0.034
			c-0.059,0.204-0.122,0.45-0.188,0.715c-0.047,0.176-0.1,0.347-0.13,0.535c-0.335,1.424-0.717,3.292-0.972,4.574
			C19.917,9.95,20.464,10.506,20.912,11.164z M21.893,4.938c0.856,0.747,1.93,1.213,3.114,1.213c1.184,0,2.258-0.466,3.114-1.213
			c0.089,0.341,0.151,0.702,0.151,1.105c0,2.227-2.017,4.667-3.266,4.667s-3.266-2.44-3.266-4.667
			C21.741,5.64,21.804,5.278,21.893,4.938z M27.495,13.081c-0.818,0.847-1.752,1.074-2.488,1.074c-0.613,0-1.362-0.183-2.069-0.726
			c0.199,0.745,0.31,1.56,0.31,2.443c0,0.703-0.103,1.408-0.271,2.103C23.613,17.996,24.29,18,25.007,18
			c3.317,0,6.007,0,6.007-2.087C31.014,14.207,29.471,13.52,27.495,13.081z"></path>
  </g>
  <g id="svgicon-close-2" data-iconmelon="Icon Set:b280bdceee40f4bde3f41679dd5d2f51">
    <path d="M16,2C8.268,2,2,8.268,2,16s6.268,14,14,14s14-6.268,14-14S23.732,2,16,2z
         M22.711,19.727c0.412,0.412,0.412,1.08,0,1.492l-1.492,1.492c-0.412,0.412-1.08,0.412-1.492,0l-3.73-3.73l-3.73,3.73
        c-0.412,0.412-1.08,0.412-1.492,0l-1.491-1.492c-0.412-0.412-0.412-1.08,0-1.492l3.729-3.73l-3.729-3.729
        c-0.412-0.412-0.412-1.08,0-1.492l1.491-1.492c0.412-0.412,1.08-0.412,1.492,0l3.73,3.73l3.73-3.73
        c0.412-0.412,1.08-0.412,1.492,0l1.492,1.492c0.412,0.412,0.412,1.08,0,1.492l-3.73,3.729L22.711,19.727z"></path>
  </g>
  <g id="svgicon-notification-successfully" data-iconmelon="Icon Set:3ebec38b007581025c28ac472e7f2ddc">
    <path d="M16,30C8.268,30,2,23.732,2,16C2,8.269,8.268,2,16,2s14,6.269,14,14
        C30,23.732,23.732,30,16,30z M24.121,10.968L22.73,9.481c-0.384-0.41-1.007-0.41-1.391,0l-7.65,8.175l-3.211-3.424
        c-0.384-0.41-1.006-0.41-1.391,0l-1.391,1.486c-0.385,0.411-0.385,1.076,0,1.487l5.296,5.674c0.384,0.41,1.007,0.41,1.392,0
        l9.736-10.426C24.506,12.044,24.506,11.379,24.121,10.968z"></path>
  </g>
  <g id="svgicon-dustbin" data-iconmelon="Icon Set:3da97082911ddbe8d7188f27ba87109b">
    <path d="M14,6h4v1h3V6c0-1.657-1.343-3-3-3h-4c-1.657,0-3,1.343-3,3v1h3V6z M25,8H7
        c-1.104,0-2,0.896-2,2v1c0,1.028,0.779,1.865,1.777,1.978L8.083,27c0,1.657,1.344,3,3,3h9.75c1.657,0,3-1.343,3-3l1.375-14.021
        C26.213,12.874,27,12.033,27,11v-1C27,8.896,26.104,8,25,8z M12.116,27c-0.559,0-1.061-0.569-1.122-1.272L9.933,14.272
        C9.871,13.569,10.274,13,10.832,13c0.559,0,1.061,0.569,1.121,1.272l1.062,11.455C13.076,26.431,12.674,27,12.116,27z M17,25.728
        C17,26.431,16.553,27,16,27s-1-0.569-1-1.272V14.272C15,13.569,15.447,13,16,13s1,0.569,1,1.272V25.728z M21.006,25.728
        C20.944,26.431,20.442,27,19.884,27c-0.558,0-0.96-0.569-0.899-1.272l1.062-11.455C20.107,13.569,20.609,13,21.168,13
        c0.558,0,0.961,0.569,0.899,1.272L21.006,25.728z"></path>
  </g>
  <g id="svgicon-other" data-iconmelon="Icon Set:e56b6082df3d3e35b6de811a72d9bb53">
    <path d="M6,12c-2.209,0-4,1.791-4,4s1.791,4,4,4s4-1.791,4-4S8.209,12,6,12z M16,12
        c-2.209,0-4,1.791-4,4s1.791,4,4,4s4-1.791,4-4S18.209,12,16,12z M26,12c-2.209,0-4,1.791-4,4s1.791,4,4,4s4-1.791,4-4
        S28.209,12,26,12z"></path>
  </g>
  <g id="svgicon-templates" data-iconmelon="Icon Set:ed2296c5e1853d40f7f8f9e6a10ffcd0">
    <path d="M26,1H7C5.896,1,5,1.896,5,3v26c0,0.473,0.178,0.895,0.452,1.236
        c0.187,0.222,0.409,0.354,0.67,0.359c0.39,0.008,0.853-0.207,1.376-0.535c0.014-0.009,0.029-0.014,0.044-0.021l8.958-5.203
        l8.959,5.204c0.015,0.008,0.029,0.012,0.043,0.021c0.523,0.328,0.986,0.543,1.377,0.535c0.25-0.006,0.461-0.131,0.643-0.333
        C27.812,29.917,28,29.485,28,29V3C28,1.896,27.104,1,26,1z M22.81,12.271l-2.48,2.503l0.498,3.364
        c0.021,0.27-0.104,0.532-0.33,0.693c-0.143,0.103-0.312,0.154-0.484,0.154c-0.102,0-0.203-0.019-0.301-0.055l-3.213-1.478
        l-3.212,1.478c-0.097,0.036-0.199,0.055-0.301,0.055c-0.173,0-0.343-0.052-0.485-0.154c-0.227-0.161-0.352-0.424-0.328-0.694
        l0.496-3.363l-2.479-2.503c-0.183-0.21-0.239-0.497-0.147-0.757s0.317-0.454,0.596-0.515l3.494-0.561l1.668-3.053
        c0.146-0.236,0.412-0.381,0.699-0.381s0.551,0.144,0.7,0.38l1.668,3.053L22.36,11c0.279,0.061,0.504,0.255,0.596,0.515
        S22.993,12.062,22.81,12.271z"></path>
  </g>
  <g id="svgicon-github" data-iconmelon="Jolly Icons:fdaab95c5b092074d25a6b5b6f5a7456">
    <g>
      <path fill-rule="evenodd" clip-rule="evenodd" d="M17.897,15.52c-0.284,0.003-0.43,0.145-0.776,0.085
		c-0.564-0.038-0.597-0.61-1.206-0.602c-0.049,0.123-0.135,0.21-0.26,0.257c0.136,0.899,0.934,1.135,1.896,1.209
		c0.202-0.028,0.323-0.137,0.603-0.088c0.42-0.278,1.403-0.691,0.863-1.378C18.419,14.949,18.282,15.357,17.897,15.52z"></path>
      <path fill-rule="evenodd" clip-rule="evenodd" d="M17.552,14.571c0.015-0.101,0.136-0.093,0.259-0.087
		c0.174-0.203,0.228-0.578,0.087-0.861c-0.324-0.309-0.931-0.137-0.949,0.346C16.999,14.32,17.2,14.52,17.552,14.571z"></path>
      <path fill-rule="evenodd" clip-rule="evenodd" d="M27.896,6.899c-0.294-0.222-0.554-0.481-0.775-0.774
		c-0.393-0.154-0.743-0.352-0.949-0.69c0.194-0.063,0.034-0.484,0.087-0.689c0.195-0.064,0.034-0.484,0.086-0.689
		c0.247-0.013-0.075-0.592,0.172-0.604c-0.066-0.355,0.133-0.442,0.088-0.775c0.156-0.777,0.691-1.903,0.172-2.585
		c-0.111-0.12-0.375-0.086-0.604-0.087c-0.102,0.041-0.194,0.092-0.258,0.172c-0.353,0.137-0.528,0.449-0.862,0.604
		c-0.227,0.26-0.608,0.367-0.775,0.689c-0.592,0.413-1.021,0.99-1.639,1.378c-0.395-0.021-0.534,0.211-0.861,0.259
		c-0.367,0.005-0.631,0.116-0.948,0.174c-0.653,0.092-1.304,0.189-1.982,0.258c-0.296,0.038-0.482-0.034-0.69-0.087
		c-0.271-0.041-0.194,0.265-0.516,0.174c-0.855-0.112-2.095,0.07-3.19,0c-0.343-0.089-0.735-0.127-1.12-0.174
		c-0.442-0.275-0.837-0.599-1.121-1.035c-0.719-0.229-1.222-0.672-1.982-0.861c-0.44-0.133-0.469-0.68-1.12-0.604
		c-0.732,0.044-0.81,0.742-1.033,1.294c0.021,1.327-0.148,2.37,0,3.62C8.039,6.15,7.812,6.238,7.64,6.383
		C7.485,6.545,7.405,6.781,7.209,6.899C6.95,7.273,6.773,7.729,6.519,8.105C6.475,8.637,6.308,9.045,6.26,9.57v2.156
		c0.172,0.292,0.093,0.639,0.172,0.947c0.01,0.038,0.155,0.211,0.173,0.26c0.046,0.128,0.057,0.259,0.087,0.344
		c0.085,0.254,0.162,0.416,0.172,0.604c0.004,0.086,0.076,0.055,0.086,0.087c0.164,0.478,0.237,0.967,0.432,1.378
		c0.077,0.165,0.233,0.339,0.345,0.519c0.146,0.232,0.186,0.3,0.346,0.43c0.028,0.023-0.025,0.143,0,0.174
		c0.299,0.365,0.734,0.556,0.947,0.947c0.723,0.34,1.349,0.776,2.413,0.775c0.064,0.193,0.483,0.033,0.69,0.086
		c0.125,0.133,0.44,0.076,0.688,0.087c0.424,0.123,0.904,0.188,1.467,0.172c-0.197,0.234-0.382,0.479-0.604,0.689
		c-0.162,0.297-0.538,0.381-0.604,0.776c-0.271,0.244-0.152,0.881-0.43,1.12c-0.963,0.042-1.812-0.026-2.414-0.345
		c-0.832-0.919-1.2-2.304-2.327-2.931c-0.86-0.156-1.739,0.065-2.672,0.086c-0.364,0.296-0.842,0.48-1.207,0.775
		c-0.438,0.223-0.944,0.379-0.948,1.035c0.882,0.658,1.617-0.546,2.587-0.604c0.566-0.021,0.939,0.151,1.552,0.086
		c0.364,0.468,0.632,1.033,0.862,1.638c0.299,0.361,0.615,0.706,0.862,1.121c0.214-0.016,0.268,0.133,0.344,0.259
		c0.611,0.308,1.294,0.544,2.154,0.603h1.293c0.447,0.494,0.532,1.225,0.431,1.982c-0.017,0.133-0.125,0.283-0.171,0.432
		c-0.087,0.266-0.124,0.491-0.174,0.688c-0.076,0.307-0.361,0.57-0.345,0.862c-0.554,0.422-1.005,0.947-1.983,0.949
		c-0.592-0.012-0.582-0.623-1.291-0.519c-0.077-0.325-0.12-0.684-0.604-0.603c-0.37,0.15-0.414,0.881-0.26,1.294
		c0.142,0.433,0.353,0.796,0.518,1.205c0.664,0.543,1.985,0.43,3.189,0.432c0.182-0.165,0.41-0.278,0.689-0.346
		c0.611-0.739,1.143-1.558,1.724-2.327c0.062-0.398,0.284-0.635,0.345-1.033c0.101-0.28,0.445-0.654,0.689-0.518
		c0.169,1.27,0.053,2.82,0.087,4.224c-0.19,0.298-0.267,0.712-0.431,1.034c-0.482-0.023-0.799,0.122-1.035,0.346
		c0.085,0.49,0.368,0.781,0.689,1.033c0.899,0.096,1.398-0.212,1.896-0.517c0.239-0.538,0.464-1.089,0.604-1.724
		c0.032-1.092-0.019-2.395,0-3.706c0.115-0.49,0.259-0.95,0.259-1.553c0.183-0.421,0.012-1.194,0.259-1.551
		c0.02,0.555,0.138,1.011,0.087,1.638c0.3,1.969,1.368,3.172,1.981,4.826c0.608,0.57,1.201,1.156,2.327,1.207
		c0.074-0.129,0.278-0.125,0.431-0.172c0.203-0.286,0.417-0.561,0.346-1.12c-0.067-0.02-0.101-0.073-0.086-0.174
		c-0.237-0.509-0.98-0.514-1.38-0.861c-0.237-0.767-0.709-1.302-1.034-1.983c-0.21-0.651-0.378-1.345-0.69-1.896
		c0.025-0.455-0.223-0.64-0.172-1.12c-0.178-0.021-0.022-0.379-0.173-0.432c-0.063-0.295,0.352-0.109,0.26-0.43
		c0.361,0.355,0.498,0.937,0.689,1.463c0.562,0.849,1.078,1.738,1.896,2.328c0.678,0.761,1.566,1.309,2.759,1.553h1.12
		c0.014-0.159,0.293-0.054,0.345-0.173c0.059-0.116,0.186-0.161,0.346-0.173c0.312-0.318,0.521-0.742,0.775-1.121
		c0.175-0.4,0.33-1.297-0.086-1.551c-1.081-0.019-1.18,0.947-2.069,1.121c-1.616-0.372-2.68-1.667-3.36-2.845
		c-0.052-0.086-0.033-0.161-0.088-0.259c-0.475-0.872-1.046-1.74-1.379-2.672c-0.255-0.205-0.409-0.51-0.604-0.775
		c-0.15-0.078-0.268-0.193-0.344-0.345c-0.168,0.04-0.441-0.232-0.26-0.26c0.979-0.028,1.543-0.469,2.328-0.689
		c0.64-0.394,1.684-0.386,2.327-0.775c0.848-0.188,1.362-0.708,1.982-1.12c0.582-0.453,1.132-0.937,1.725-1.379
		c0.419-0.732,0.962-1.336,1.12-2.329v-2.24c-0.146-1.002-0.439-1.859-0.689-2.759C28.066,7.303,27.949,7.133,27.896,6.899z
		 M26.604,7.848c0.216,0.314,0.627,1.01,0.258,1.379c-0.345-0.087-0.346-0.517-0.604-0.689C26.298,8.232,26.476,8.065,26.604,7.848z
		 M26.516,11.295c-0.003-0.262,0.184-0.334,0.26-0.516C27.193,10.889,26.713,11.539,26.516,11.295z M26.085,7.244
		c-0.001,0.172-0.234,0.109-0.172,0.346c-0.327-0.047-0.38-0.367-0.432-0.69C25.835,6.863,25.933,7.081,26.085,7.244z M25.741,9.314
		c0.286,0.21,0.593,0.682,0.259,1.033c-0.273-0.073-0.246-0.445-0.519-0.518C25.563,9.654,25.658,9.488,25.741,9.314z M25.396,1.9
		c0.25,0.283-0.166,0.635-0.086,1.035c-0.368,0.022-0.375-0.315-0.604-0.433C24.898,2.266,25.248,2.184,25.396,1.9z M24.103,2.848
		h0.259c0.004,0.59,0.868,0.619,0.604,1.208c-0.445-0.159-0.643-0.565-0.948-0.862C23.98,3.013,24.075,2.965,24.103,2.848z
		 M23.586,3.97c0.139-0.025,0.148,0.081,0.259,0.086c0.027,0.401,0.488,0.372,0.517,0.774c-0.116,0.086-0.173,0.23-0.259,0.346
		c-0.438-0.051-0.438-0.537-0.776-0.689C23.361,4.263,23.584,4.226,23.586,3.97z M23.586,8.537c-0.299,0.061-0.31-0.302-0.172-0.432
		C23.588,8.168,23.765,8.366,23.586,8.537z M22.811,3.796c0.045-0.133,0.089-0.005,0.086,0.087
		C22.742,3.907,22.719,3.801,22.811,3.796z M22.896,5.262c0.14-0.023,0.147,0.082,0.258,0.086c0.002,0.372,0.43,0.317,0.432,0.69
		c-0.27,0.362-0.436,0.829-0.689,1.206c-0.387-0.044-0.594-0.269-0.863-0.43C22.339,6.312,22.592,5.763,22.896,5.262z M22.465,8.192
		h-1.121c0.002-0.258,0.226-0.294,0.26-0.519c0.221,0.012,0.302,0.16,0.43,0.26C22.254,7.944,22.477,7.95,22.465,8.192z
		 M21.775,4.486c-0.023-0.14,0.082-0.148,0.086-0.26c0.335-0.074,0.307,0.211,0.518,0.26c-0.125,0.363-0.447,0.529-0.518,0.948
		c-0.331,0.156-0.258,0.718-0.689,0.776c-0.339-0.255-0.038-0.666,0.172-0.863C21.439,5.013,21.583,4.725,21.775,4.486z
		 M21.086,4.313c-0.245,0.358-0.479,0.729-0.689,1.121C19.734,5.162,20.163,4.029,21.086,4.313z M20.482,6.814
		c0.171,0,0.11,0.233,0.345,0.171c-0.032,0.513-0.365,0.727-0.258,1.38c-0.076-0.067-0.194-0.094-0.346-0.086
		c0.185-0.323-0.01-0.49-0.173-0.689C20.141,7.276,20.338,7.07,20.482,6.814z M19.879,6.211c-0.096,0.449-0.443,0.646-0.518,1.119
		c-0.175-0.082-0.342-0.176-0.517-0.259c0.158-0.444,0.486-0.72,0.603-1.206C19.701,5.871,19.768,6.062,19.879,6.211z M19.535,4.4
		c0.044,0.043-0.062,0.109-0.088,0.086C19.403,4.441,19.511,4.377,19.535,4.4z M18.069,5.779c0.185-0.16,0.228-0.463,0.431-0.604
		c-0.025-0.14,0.082-0.148,0.088-0.26c0.175,0.026,0.167,0.234,0.343,0.26C18.872,5.49,18.604,5.597,18.5,5.865
		c-0.193,0.181-0.211,0.537-0.518,0.604C17.698,6.258,17.963,6.05,18.069,5.779z M18.758,8.105
		c-0.037,0.194-0.424,0.035-0.604,0.087c0.031-0.113,0.152-0.136,0.173-0.259C18.594,7.869,18.493,8.171,18.758,8.105z M15.655,4.4
		h2.327c-0.108,0.58-0.601,0.778-0.775,1.293c-0.258-0.001-0.292-0.225-0.518-0.259c0.065-0.367,0.403-0.459,0.346-0.948
		c-0.438-0.035-0.505,0.301-0.776,0.43c-0.216,0.016-0.27-0.132-0.344-0.258C15.834,4.566,15.597,4.631,15.655,4.4z M17.552,8.192
		c-0.148,0.198-0.657,0.031-0.949,0.087c0.209-0.368,0.466-0.685,0.604-1.121c0.128,0.044,0.218,0.128,0.345,0.172
		C17.363,7.537,17.314,7.994,17.552,8.192z M16.173,7.33c-0.253-0.006-0.319-0.197-0.432-0.345c0.065-0.338,0.337-0.468,0.432-0.774
		c0.2,0.057,0.23,0.285,0.43,0.344C16.469,6.822,16.348,7.104,16.173,7.33z M15.741,8.279c-0.233,0.053-0.684-0.109-0.774,0.086
		c-0.258-0.18,0.216-0.352,0.172-0.604C15.355,7.918,15.729,7.918,15.741,8.279z M14.967,5.176c0.275,0.068,0.375,0.312,0.603,0.431
		c-0.071,0.388-0.444,0.474-0.518,0.862c-0.282-0.033-0.379-0.252-0.604-0.344C14.492,5.68,14.901,5.6,14.967,5.176z M12.897,4.4
		v0.086c0.708-0.205,0.964,0.343,1.638,0.085c0.015,0.303-0.291,0.285-0.346,0.519c-0.227,0.06-0.182,0.392-0.43,0.431
		c-0.415-0.131-0.659-0.433-0.949-0.69c-0.02-0.162,0.099-0.188,0.087-0.344c-0.208-0.035-0.188,0.157-0.432,0.085
		C12.378,4.282,12.734,4.438,12.897,4.4z M14.363,7.158c-0.122,0.567-0.659,0.721-0.69,1.379c-0.25-0.066-0.495-0.137-0.604-0.345
		c0.134-0.528,0.526-0.796,0.691-1.293C14.094,6.854,14.114,7.119,14.363,7.158z M12.294,5.606c0.045,0.045-0.062,0.111-0.087,0.087
		C12.164,5.648,12.27,5.583,12.294,5.606z M12.466,5.779c0.188,0.185,0.479,0.268,0.603,0.517c-0.238,0.538-0.665,0.885-0.861,1.466
		c-0.353-0.135-0.648-0.329-0.948-0.518C11.468,6.562,12.206,6.41,12.466,5.779z M11.604,9.314
		c-0.287,0.056-0.421,0.268-0.688,0.344c-0.34-0.064-0.469-0.336-0.777-0.432c0.11-0.494,0.433-0.773,0.604-1.206
		c0.502,0.013,0.641,0.393,1.033,0.517C11.685,8.761,11.567,8.961,11.604,9.314z M9.708,8.105C9.549,8.258,9.447,8.75,9.191,8.537
		c0.142-0.52,0.448-0.872,0.689-1.293c0.113,0.031,0.136,0.152,0.258,0.172C10.08,7.731,9.812,7.837,9.708,8.105z M10.397,6.555
		c0.045,0.045-0.062,0.109-0.086,0.086C10.267,6.598,10.375,6.531,10.397,6.555z M12.122,4.056c-0.232,0.253-0.479-0.209-0.69-0.26
		C11.636,3.57,11.881,4.033,12.122,4.056z M11.432,4.83c-0.255,0.522-0.728,0.825-0.949,1.381c-0.175-0.026-0.168-0.234-0.344-0.26
		c0.188-0.615,0.557-1.053,0.862-1.551C11.229,4.459,11.184,4.792,11.432,4.83z M9.535,3.97V2.676
		c0.408,0.224,0.895,0.37,1.293,0.604c-0.176,0.08-0.239,0.277-0.346,0.431c0.048,0.304-0.305,0.212-0.258,0.516
		C9.945,4.463,9.777,4.814,9.622,5.176C9.423,4.943,9.592,4.344,9.535,3.97z M9.277,5.951c0.045-0.133,0.09-0.006,0.086,0.087
		C9.209,6.062,9.187,5.956,9.277,5.951z M9.104,6.555C9.502,6.71,8.902,6.932,8.934,7.244C8.682,7.367,8.737,7.797,8.415,7.848
		C8.474,7.246,8.869,6.979,9.104,6.555z M8.071,11.037c0.218-0.613,0.454-1.211,0.688-1.811h0.259
		C8.854,9.73,8.51,10.391,8.76,11.037c-0.214,0.218-0.446,0.416-0.517,0.776C8.021,11.718,8.072,11.35,8.071,11.037z M9.967,10.348
		c-0.238,0.021-0.197,0.32-0.345,0.432c-0.035,0.207,0.156,0.187,0.086,0.43c-0.739,0.804-0.959,3.002-0.345,4.138
		c0.104-0.009,0.053,0.126,0,0c-0.513-0.435-0.729-1.167-0.948-1.896c0.128-0.821,0.529-1.366,0.689-2.155
		c0.2-0.058,0.231-0.285,0.431-0.346c-0.061-0.318,0.147-0.369,0.087-0.688c0.101-0.052,0.126-0.606,0.345-0.259
		C10.346,9.99,9.99,10.246,9.967,10.348z M24.361,13.537c-0.272,0.933-0.661,1.752-1.119,2.5c-0.307,0.24-0.8,0.291-1.121,0.517
		c-0.192,0.068-0.336,0.182-0.604,0.172c-0.03,0.229-0.438,0.079-0.517,0.259c-2.321,0.195-4.329-0.059-6.637-0.086
		c-0.87-0.108-1.734-0.221-2.587-0.345c-0.321-0.282-0.633-0.573-0.86-0.949c-0.135-0.182-0.249-0.384-0.347-0.602
		c-0.151-0.137-0.113-0.463-0.258-0.604c-0.007-0.84,0.077-1.588,0.171-2.327c0.126-0.507,0.541-0.724,0.776-1.122
		c0.366-0.266,0.621-0.643,1.035-0.859c0.197-0.063,0.44-0.078,0.604-0.174c0.154-0.104,0.501-0.015,0.603-0.172
		c2.101,0.117,3.59-0.375,5.689-0.258c0.443,0.068,0.565-0.184,0.948-0.172h1.896c0.14,0.022,0.15-0.083,0.259-0.088
		c0.264-0.062,0.255,0.148,0.519,0.088c0.218,0.01,0.334,0.123,0.344,0.344c0.113,0.088,0.317,0.084,0.432,0.172
		c0.258,0.777,0.576,1.493,0.775,2.328V13.537z M24.017,7.848c-0.177-0.025-0.169-0.233-0.346-0.258
		c0.122-0.454,0.39-0.762,0.518-1.207c0.155-0.012,0.182,0.104,0.346,0.086C24.676,7.243,24.14,7.338,24.017,7.848z M24.534,5.693
		c0.004,0.006,0.079-0.162,0.086-0.173c0.005-0.007-0.007-0.086,0-0.086C24.928,5.381,24.628,5.817,24.534,5.693z M24.62,8.71
		c-0.005-0.377,0.215-0.532,0.345-0.776c0.152,0.079,0.158,0.302,0.259,0.432c0.021,0.309-0.259,0.315-0.259,0.604
		C24.789,8.943,24.796,8.734,24.62,8.71z M25.224,11.295c-0.316-0.177-0.005-0.449-0.087-0.86c0.191,0.067,0.216,0.3,0.345,0.431
		C25.523,11.136,25.25,11.092,25.224,11.295z M25.568,12.934c-0.278-0.229,0.072-0.554,0.173-0.689
		c0.175-0.168,0.282-0.407,0.43-0.604c0.106,0.037,0.179,0.11,0.173,0.258C26.043,12.2,25.787,12.548,25.568,12.934z M26.947,13.02
		c-0.256,0.204-0.242,0.678-0.689,0.689c-0.402-0.006,0.102-0.197,0.086-0.345c0.079-0.152,0.209-0.252,0.26-0.431
		c0.268-0.221,0.421-0.555,0.602-0.862c0.184,0.027-0.012,0.376-0.085,0.431C27.161,12.774,26.996,12.84,26.947,13.02z"></path>
      <path fill-rule="evenodd" clip-rule="evenodd" d="M12.639,14.484c0.376,0.248,0.863,0.3,1.294,0.087
		c0.625-0.632,0.336-2.319-0.088-2.931C12.403,11.208,12.094,13.43,12.639,14.484z"></path>
      <path fill-rule="evenodd" clip-rule="evenodd" d="M21.604,10.949h-0.172c-0.363,0.355-0.768,0.673-0.949,1.209
		c-0.013,0.473-0.009,0.929,0.087,1.292c0.324,0.222,0.325,0.767,0.862,0.776c0.691,0.059,0.785-0.479,1.033-0.862
		C22.452,12.286,22.64,11.006,21.604,10.949z"></path>
    </g>
  </g>
  <g id="svgicon-gplus" data-iconmelon="Jolly Icons:bb9db8fa4ee03b005f7a52b19f814e48">
    <g>
      <path fill-rule="evenodd" clip-rule="evenodd" d="M31.394,15.038c-0.548-0.108-0.604,0.275-1.114,0.202
		c-0.603-0.189-1.537-0.299-2.227-0.1v-1.215c-0.122-0.688-0.207-1.412-0.203-2.228c-0.128-0.464-0.106-1.077-0.203-1.315
		c-0.094-0.238-0.346-0.299-0.402-0.506h-0.608c-1.036,0.381-1.759,1.076-2.835,1.417c-0.291,0.483-0.188,1.364-0.202,2.125
		c-0.148,0.526-0.093,1.256-0.101,1.924h-2.023c-0.188,0.309-0.481-0.118-0.811,0c-0.002,0.167-0.28,0.056-0.304,0.202
		c-0.145,0.023-0.171,0.167-0.304,0.202c-0.158,0.466,0.107,0.656,0.101,1.215c-0.129,0.782-0.196,1.624-0.201,2.53
		c0.208,0.163,0.255,0.486,0.404,0.708c0.745,0.376,2.117,0.167,3.036,0.102c-0.054,1.369,0.142,2.49,0.305,3.644
		c0.384,0.258,0.632,0.649,1.012,0.912c0.621-0.055,1.465,0.115,1.923-0.102c0.2,0.241,0.705,0.239,1.011,0.102
		c0.476-0.444,0.301-1.314,0.305-2.127c0.005-0.84,0.064-1.744,0.102-2.429c0.654-0.021,1.26-0.089,1.822-0.202
		c0.427,0.113,0.537,0.543,1.215,0.404c0.386-0.254,0.684-0.597,0.607-1.315c0.051-0.589,0.149-1.133,0.1-1.821
		c0.168-0.339,0.035-0.979,0.203-1.316C31.928,15.584,31.73,15.241,31.394,15.038z M22.182,17.062
		c0.137,0.066,0.189,0.217,0.203,0.405C22.069,17.516,22.022,17.213,22.182,17.062z M22.283,17.873V17.67
		c0.086,0.02,0.096-0.039,0.102-0.101C22.581,17.528,22.532,18.03,22.283,17.873z M25.117,16.354
		c0.22-0.017,0.046,0.358,0.102,0.506h-0.404C24.766,16.543,25.087,16.593,25.117,16.354z M30.076,18.581
		c-0.604-0.228-1.112,0.048-1.82,0c-0.225,0.056-0.146-0.193-0.305-0.203h-1.113c0.054-0.149,0.15-0.255,0.203-0.403
		c-0.43-0.127-0.271,0.336-0.506,0.403v4.657c-0.215-0.09-0.3-0.309-0.608-0.305c0.06-0.362-0.116-0.489-0.202-0.708
		c0.162-0.579,0.443-1.04,0.607-1.62c-0.043-0.361-0.322-0.486-0.708-0.506c0.03-0.268-0.212-0.261-0.405-0.303v-0.607
		c-0.149-0.385,0.453-0.021,0.303-0.405c0.008-0.345-0.375-0.3-0.707-0.304c0.085-0.217,0.249-0.357,0.607-0.303
		c0.215-0.049,0.192,0.144,0.202,0.303c0.081,0.088,0.277,0.061,0.303,0.203c0.347,0.042,0.305-0.304,0.507-0.406
		c-0.047-0.594-0.143-1.14-0.406-1.518c-0.112-0.484,0.156-0.807-0.303-1.012c-0.318-0.015-0.348,0.259-0.404,0.506
		c-0.238-0.211-0.107-0.911,0.201-0.91c-0.076-0.837,0.734-1.268,0.405-2.025c-0.491-0.086-0.574,0.236-0.708,0.507
		c-0.232-0.207-0.036-0.841-0.102-1.215c0.05-0.319-0.182-0.357-0.102-0.709c0.426-0.182,0.892-0.323,1.215-0.606
		c0.118-0.018,0.181,0.021,0.203,0.101c-0.076,1.763,0.123,3.251,0.102,4.96c0.285,0.152,0.698,0.179,1.111,0.202
		c0.387,0.12,0.88,0.134,1.217,0.303h0.707c0.284-0.053,0.526-0.148,0.811-0.202C30.184,17.068,30.227,17.922,30.076,18.581z"></path>
      <path fill-rule="evenodd" clip-rule="evenodd" d="M12.263,26.779H12.06C12.086,26.906,12.262,26.883,12.263,26.779z"></path>
      <path fill-rule="evenodd" clip-rule="evenodd" d="M12.466,26.679h-0.203v0.101C12.381,26.797,12.443,26.758,12.466,26.679z"></path>
      <path fill-rule="evenodd" clip-rule="evenodd" d="M11.25,13.521c0.162-0.176,0.379-0.297,0.607-0.405
		c0.103-0.135,0.097-0.377,0.305-0.404c0.258-1.059,0.287-2.345,0.304-3.645c-0.167-0.88-0.42-1.673-0.608-2.53
		c-0.291-0.146-0.39-0.487-0.607-0.708c-0.525-0.354-1.19-0.564-1.821-0.81C7.742,4.883,6.441,5.135,5.887,6.131
		C5.812,6.609,6.031,6.797,6.189,7.043C6.062,7.184,5.656,7.048,5.785,7.447c0.057,0.328-0.068,0.471-0.102,0.709
		c-0.149,2.308,0.37,3.949,1.416,5.061c0.508,0.168,0.932,0.42,1.52,0.506c0.719-0.058,1.405-0.146,2.227-0.101
		C10.863,13.472,11.091,13.529,11.25,13.521z M10.138,12.104c-0.714,0.029-1.646-0.16-1.822,0.404
		c-0.61-0.639-0.946-1.551-1.216-2.53C7.166,8.832,6.926,7.993,6.999,6.84c0.159-0.177,0.2-0.299,0.405-0.405
		c0.329-0.17,0.712-0.083,1.215-0.101c0.45,0.258,0.734,0.683,1.113,1.012c0.148-0.056,0.523,0.119,0.506-0.102
		c0.387,0.424,0.682,0.938,0.81,1.62v2.024C10.768,11.315,10.463,11.72,10.138,12.104z"></path>
      <path fill-rule="evenodd" clip-rule="evenodd" d="M17.223,19.492c-0.703-0.849-1.662-1.441-2.632-2.024
		c-0.454-0.321-1.001-0.552-1.519-0.811c-0.376-0.433-1.079-0.538-1.113-1.314c0.223-0.282,0.653-0.36,1.013-0.507
		c0.225-0.281,0.563-0.448,0.81-0.709c0.692-0.32,1.145-0.879,1.618-1.416c0.295-0.602,0.351-1.15,0.406-1.924
		c0.021-0.293,0.106-0.533,0.101-0.81c-0.025-1.335-0.568-2.568-1.012-3.441c0.3-0.375,0.559-0.79,0.708-1.315
		c0.209-0.736,0.29-1.601,0.405-2.43c-0.24-0.57,0.099-1.718-0.405-2.024h-0.606c-0.146,0.057-0.247,0.158-0.305,0.304
		c-0.678,1.077-1.546,1.963-2.935,2.328c-0.679-0.131-1.202-0.416-1.923-0.506H7.303c-0.717,0.262-1.32,0.636-2.125,0.81
		c-1.956,1.755-3.229,4.192-3.745,7.39v1.518c0.15,0.153,0.163,0.444,0.202,0.708c0.688,1.135,1.862,1.782,3.036,2.43
		c0.759,0.152,1.249,0.573,2.126,0.607c0.277,0.162,0.67,0.208,1.113,0.202c0.488-0.015,0.449,0.496,0.709,0.709
		c-0.834,0.144-1.598,0.358-2.631,0.304c-0.324,0.217-0.801,0.28-1.114,0.505C4.448,18.223,4.252,18.6,3.76,18.683
		c-0.58,0.566-1.24,1.052-1.821,1.619c-0.087,0.351-0.315,0.562-0.506,0.81c-0.079,0.394-0.319,0.626-0.506,0.911
		c-0.226,0.719-0.665,1.226-0.81,2.024c-0.178,0.615-0.133,1.704,0,2.328c0.572,1.484,1.396,2.72,2.631,3.543
		c0.63,0.247,1.311,0.443,2.126,0.506c0.562,0.295,1.25,0.618,2.125,0.708c0.958,0.099,2.019-0.148,2.937,0.102
		c0.338-0.2,0.746-0.333,1.213-0.405c0.971-0.649,2.18-1.061,3.139-1.721c1.06-0.559,1.824-1.416,2.53-2.328
		c0.228-0.852,0.454-1.705,0.708-2.529c0.045-1.604,0.233-3.236-0.201-4.556C17.245,19.672,17.205,19.609,17.223,19.492z
		 M3.254,12.307c0.055-0.157,0.105-0.008,0.103,0.101C3.303,12.562,3.25,12.412,3.254,12.307z M15.906,24.654
		c-0.15,0.02-0.092,0.244-0.101,0.404c-0.704,1.355-1.768,2.35-3.037,3.139c-1.229,0.12-1.993,0.705-3.139,0.91
		c-0.796-0.021-1.535,0.017-2.124,0.203c-1.547-0.242-2.959-0.619-3.847-1.52c-0.333-0.225-0.445,0.212-0.708,0
		c-0.434-0.545-0.795-1.161-1.113-1.821c-0.103-1.282,0.189-2.173,0.303-3.239c0.331-0.479,0.695-0.924,1.113-1.315
		c0.689-1.571,1.875-2.646,3.543-3.238c0.234,0.031,0.389-0.017,0.506-0.103C7.76,18.26,8.58,18.08,8.619,18.683
		c0.12,0.424-0.428,0.181-0.506,0.404C7.82,19.1,7.45,19.031,7.303,19.188C6.51,19.374,6.326,20.168,5.38,20.2
		c-0.43,0.481-0.681,1.142-1.112,1.62c-0.074,0.229-0.092,0.517-0.204,0.709c-0.177,0.158-0.132,0.541-0.304,0.707
		c0.014,1.166-0.182,2.052,0,3.139c0.266,0.577,0.974,0.715,1.418,1.113c0.729,0.114,1.596,0.09,2.125,0.404
		c0.932-0.012,1.723-0.166,2.733-0.102c0.753-0.26,1.312-0.713,2.023-1.012c0.022-0.078,0.085-0.117,0.203-0.101
		c0.022-0.079,0.085-0.118,0.203-0.102c-0.011-0.122,0.146-0.062,0,0v0.102c0.54,0.027-0.036-0.433,0.506-0.405
		c0.16-0.245,0.361-0.447,0.606-0.607c0.349-0.428,0.636-0.916,0.91-1.416v-2.531c-0.124-0.516-0.373-0.908-0.605-1.316
		c-0.148-0.256-0.538-0.271-0.709-0.506c-0.16-0.245-0.361-0.447-0.607-0.606c-0.482-0.362-0.898-0.789-1.418-1.113
		c-0.227-0.516-0.717-0.768-0.91-1.316c-0.318-0.457-0.676-0.876-0.81-1.518H8.214c-0.823-0.157-1.466-0.49-2.226-0.71
		c-0.735-0.75-1.525-1.445-1.925-2.529V9.775c-0.071-0.456-0.113-0.9-0.101-1.316c0.068-2.29,1.219-3.848,2.834-4.655
		c0.967,0.056,1.47-0.354,2.329-0.405c0.237,0.132,0.698,0.043,0.91,0.202c0.646,0.165,1.033,0.585,1.62,0.81
		c0.317,0.087,0.426,0.383,0.81,0.406c0.194,0.21,0.388,0.421,0.708,0.505c0.088-0.458-0.111-0.631-0.405-0.708
		c0.517-0.294,0.953-0.667,1.519-0.911c0.043,0.515-0.155,0.79-0.304,1.114c0.06,0.43-0.072,0.668-0.101,1.012
		c-0.014,0.249-0.016,0.487,0.101,0.606c0.335,0.151-0.21,0.248-0.101,0.507c0.462,0.82,0.715,1.85,0.605,3.238
		c-0.1,0.338-0.18,0.696-0.303,1.013c-0.208,0.366-0.145,0.545-0.202,0.911c-0.368,0.441-0.972,0.648-1.315,1.113
		c-0.413,0.396-0.786,0.834-1.418,1.012c-0.133,0.474-0.575,0.639-0.81,1.012c0.164,0.311,0.176,0.769,0.305,1.114
		c0.194,0.403,0.476,0.118,0.708,0.405c0.326,0.449,0.688,0.863,1.113,1.215c0.244,0.127,0.612,0.13,0.811,0.303
		c0.5,0.545,0.998,1.093,1.619,1.519c0.395,0.786,0.724,1.638,0.91,2.632V24.654z M12.162,20.504c0.767,0.548,1.531,1.1,1.416,2.531
		c0.029,0.535-0.477,0.535-0.606,0.91c-0.261,0.246-0.479,0.534-0.709,0.811c-0.56,0.216-0.883,0.668-1.518,0.81
		c-0.245,0.126-0.493,0.251-0.81,0.304c-0.2,0.172-0.627,0.115-0.81,0.303c-0.853-0.04-1.587,0.034-2.329,0.102
		c-0.592-0.387-0.909-1.048-1.316-1.619v-1.619c0.676-1.046,1.535-1.906,2.633-2.531C9.344,20.398,10.949,20.312,12.162,20.504z
		 M9.732,18.783h0.606C10.35,19.025,9.113,18.841,9.732,18.783z"></path>
    </g>
  </g>
  <g id="svgicon-twitter" data-iconmelon="Jolly Icons:5f754e3e509aab10a161a5a6251f89c4">
    <g>
      <path fill-rule="evenodd" clip-rule="evenodd" d="M20.236,9.845c0.222,0.184,0.387,0.423,0.707,0.506
		c0.137,0.301,0.429,0.446,0.809,0.504c0.063-0.204,0.471-0.065,0.504-0.302c0.236-0.032,0.227-0.312,0.404-0.404
		c-0.025-0.749-0.176-1.372-0.505-1.816C21.122,7.756,19.872,8.385,20.236,9.845z"></path>
      <path fill-rule="evenodd" clip-rule="evenodd" d="M30.027,7.322c-0.504,0-1.009,0-1.514,0c0.192-0.48,0.465-0.881,0.707-1.312
		c0.074-0.597,0.346-0.999,0.303-1.716c0.176-0.227,0.239-0.567,0.402-0.808c0.142-0.196,0.331-0.649,0.102-0.908
		c-0.069-0.301-0.401-0.338-0.807-0.303c-0.12,0.05-0.23,0.107-0.303,0.202c-0.609,0.59-1.061,1.38-1.717,1.917
		c-0.012,0.012-0.084,0-0.102,0c-0.117,0.007-0.043,0.064-0.101,0.102c-0.199,0.132-0.351,0.207-0.503,0.303
		c-0.388,0.24-0.745,0.606-1.213,0.706c-0.721-0.288-1.576-0.443-2.523-0.504c-1.575,0.14-3.137,0.294-4.138,1.009
		c-1.24,0.477-2.011,1.42-2.927,2.221c-0.068,0.437-0.467,0.543-0.504,1.01c-0.007,0.062-0.017,0.119-0.102,0.101
		c0.059,0.327-0.068,0.469-0.101,0.706c-0.001,0.182,0.271,0.588,0,0.707c-1.12-0.162-2.023-0.857-2.928-1.312
		c-0.978-0.49-1.999-0.822-2.825-1.514C8.262,7.489,7.521,6.816,6.814,6.111c-0.283-0.425-0.738-0.675-0.91-1.212
		C5.389,4.676,5.666,3.657,4.896,3.688c-0.43-0.059-0.47,0.272-0.605,0.505C4.195,4.502,3.799,4.51,3.785,4.899
		C3.779,4.962,3.771,5.02,3.685,5.001c-0.231,1.483-0.719,2.714-0.706,4.44c0.175,0.565,0.475,1.006,0.807,1.413
		c-0.569,0.069-0.975,0.303-1.211,0.707c-0.082,1.462,0.514,2.244,1.01,3.128c0.183,0.524,0.479,0.934,0.808,1.312
		c0.023,0.312,0.28,0.393,0.403,0.605c0.024,0.144,0.166,0.17,0.202,0.304c-0.055,0.145,0.394,0.246,0.101,0.302
		c-0.562,0.178-1.385,0.096-1.716,0.506c-0.149,0.379-0.149,1.134,0,1.514c0.046,0.323,0.384,0.355,0.403,0.705
		c0.68,0.567,1.473,1.019,2.222,1.516c0.782,0.226,1.649,0.367,2.522,0.504c-0.139,0.467-0.46,0.751-0.807,1.01
		c-1.062,0.519-2.519,0.645-3.736,1.009c-0.756,0.052-1.301,0.313-2.118,0.304c-0.452,0.173-1.163,0.102-1.515,0.303
		c-0.166,0.094-0.138,0.131-0.303,0.302c-0.182,0.56,0.151,1.007,0.605,1.211c-0.007,0.344,0.297,0.377,0.506,0.505
		c0.12,0.25,0.345,0.395,0.604,0.505c0.742,0.637,1.727,1.033,2.625,1.515c1.129,0.249,2.245,0.513,3.432,0.706
		c1.22,0.159,2.589,0.169,3.835,0.302c0.438,0,0.875,0,1.312,0c0.696,0.18,1.677,0.074,2.522,0.102
		c0.131-0.139,0.439-0.1,0.707-0.102c0.711-0.365,1.629-0.523,2.221-1.008c0.783-0.328,1.348-0.874,2.12-1.211
		c1.18-1.042,2.638-1.804,3.431-3.23c0.279-0.259,0.479-0.599,0.607-1.01c0.359-0.212,0.523-0.619,0.806-0.908
		c0.551-0.559,0.963-1.259,1.413-1.918c0.436-0.676,0.785-1.436,1.212-2.119c-0.013-0.552,0.416-0.66,0.403-1.211
		c0.264-0.309,0.241-0.902,0.506-1.212c-0.046-0.347,0.039-0.565,0.101-0.808c0.063-1.745-0.065-3.299-0.405-4.642
		c0.801-0.211,1.609-0.411,2.222-0.808c0.718-0.252,1.361-0.793,1.11-1.716C31.637,7.328,30.707,7.45,30.027,7.322z M27.303,13.378
		c-0.209,1.171-0.839,1.921-1.414,2.726c0.08,0.516-0.142,0.732-0.1,1.211c-0.216,0.424-0.391,0.889-0.506,1.413
		c-0.276,0.362-0.452,0.825-0.705,1.21c-0.5,0.747-1.06,1.432-1.615,2.121c-0.516,0.764-1.243,1.313-1.818,2.018
		c-0.572,0.672-1.283,1.206-1.916,1.817c-0.645,0.23-1.211,0.54-1.716,0.908c-0.316,0.122-0.63,0.245-0.908,0.404
		c-0.241,0.197-0.681,0.195-0.909,0.403c-1.48,0.201-3.134,0.23-4.844,0.201c-1.404-0.143-2.881-0.215-4.139-0.505
		c-1.258-0.257-2.059-0.97-3.129-1.412c0.208-0.329,0.864-0.212,1.312-0.303c0.042-0.227,0.535-0.003,0.604-0.202
		c0.352,0.081,0.389-0.15,0.708-0.101c0.768-0.274,1.676-0.411,2.321-0.808c0.385-0.188,0.553-0.59,0.908-0.807
		c0.045-0.258,0.141-0.465,0.303-0.606c0.064-0.374,0.273-0.601,0.202-1.11c0.151-0.285,0.407-0.466,0.403-0.908
		c-0.102-0.201-0.175-0.432-0.403-0.505c-0.036-0.267-0.515-0.091-0.605-0.302c-0.347,0.043-0.566-0.041-0.808-0.102
		c-0.209-0.06-0.663,0.125-0.706-0.102C6.677,20.008,6.053,19.454,5.3,19.03c0.586-0.355,1.405-0.479,1.815-1.009
		c0.703-0.105,1.441-0.177,1.515-0.909c0-0.975-1.05-0.9-1.815-1.11c-1.054-0.898-1.627-2.276-2.423-3.432
		c0.324-0.214,0.769-0.307,1.009-0.605c0.617,0.08,0.735-0.342,0.908-0.706c0.025-0.665-0.453-0.825-0.809-1.11
		C5.148,9.861,4.854,9.518,4.593,9.14c-0.004-1.114-0.029-2.25,0.101-3.23C4.779,5.891,4.789,5.948,4.795,6.01
		c0.308,0.602,0.761,1.055,1.109,1.615c0.725,0.486,1.261,1.162,2.12,1.515c0.616,0.562,1.509,0.846,2.12,1.413
		c0.818,0.358,1.578,0.775,2.32,1.211c0.912,0.266,1.438,0.916,2.727,0.807c0.271-0.132,0.536-0.271,0.807-0.404
		c0.352-0.62-0.079-1.469,0.201-2.22c0.348-0.897,1.086-1.405,1.716-2.019c0.395-0.211,0.755-0.457,1.11-0.707
		c0.473-0.133,0.918-0.293,1.312-0.504c0.512-0.027,0.971-0.105,1.414-0.201c0.57,0,1.143,0,1.715,0
		c0.333,0.07,0.646,0.162,1.01,0.201c0.283,0.187,0.517,0.426,0.907,0.504c1.075,0.945,1.729,2.311,1.919,4.139
		C27.135,12.02,27.373,12.551,27.303,13.378z M27.705,5.707c-0.175,0.464-0.314,0.963-0.807,1.11
		c-0.024-0.144-0.166-0.17-0.201-0.302C26.681,6.23,26.982,6.262,27.1,6.111C27.322,5.996,27.435,5.773,27.705,5.707
		C27.696,5.586,27.853,5.645,27.705,5.707z"></path>
    </g>
  </g>
  <g id="svgicon-facebook" data-iconmelon="Jolly Icons:6d630f767a8f5641c9d0ad14befcf2f5">
    <path fill-rule="evenodd" clip-rule="evenodd" d="M24.114,1.737c-0.033-0.233-0.311-0.226-0.345-0.46
	c-0.31-0.189-0.509-0.487-0.806-0.689c-0.811-0.188-1.607-0.387-2.415-0.576c-0.946,0.051-2.112-0.118-2.877,0.115
	C14.75,0.08,13.213,1.42,11.806,2.889c-0.027,0.089-0.004,0.227-0.117,0.229c-0.641,1.833-0.139,4.18-0.229,6.442
	c0.109,0.504,0.119,1.107,0.229,1.61c-1.114,0.343-2.468,0.446-3.795,0.576c-0.354,0.374-0.199,1.258-0.23,1.956
	c0.096,0.672,0.311,1.223,0.461,1.84c0.234,0.223,0.664,0.458,0.92,0.576c0.072,0.033,0.08,0.095,0.115,0.113
	c0.562,0.31,1.619,0.01,2.529,0.116c-0.152,2.283,0.285,4.519,0,6.557c0.008,0.378,0.328,0.44,0.23,0.921
	c0,1.111-0.074,2.299,0.232,3.105c-0.32,0.525-0.555,1.135-0.463,2.072c0.136,0.018,0.127,0.182,0.117,0.344
	c-0.084,0.544,0.717,0.203,0.574,0.807c0.182,0.526-0.477,0.212-0.461,0.574v1.036c0.592,0.329,1.631,0.21,2.531,0.229
	c1.013-0.483,2.439-0.552,3.107-1.381c0.512,0.271,1.02-0.016,1.38-0.229c-0.019-0.364,0.306-0.385,0.229-0.806
	c-0.004-0.379-0.193-0.572-0.115-1.035v-3.336c-0.229-2.646-0.052-5.7-0.344-8.284c0.99-0.121,2.139-0.086,2.876-0.46
	c0.398-0.52,0.421-1.42,0.575-2.186c0.197-0.262,0.246-0.674,0.23-1.15c0.213-0.246,0.076-0.843,0.115-1.265
	c-0.156-0.688-0.188-1.501-0.921-1.61c-0.985-0.272-2.28,0.687-3.337,0.344c0.055-1.31-0.327-2.703,0-3.91
	c0.832-0.205,1.613-0.458,2.416-0.691c1.146,0.034,2.225,0,2.991-0.345c0.436-0.944,0.62-2.142,0.69-3.451
	C24.132,2.182,24.274,1.809,24.114,1.737z M22.274,4.154h-1.726c-1.218,0.277-2.216,0.775-3.337,1.15
	c-0.268,0.076-0.309,0.382-0.574,0.46c-0.041,0.458-0.252,0.746-0.347,1.149c-0.088,1.661,0.149,2.998,0.115,4.603
	c0.131,0.293,0.283,0.562,0.461,0.806c0.089,0.025,0.226,0.002,0.229,0.115c1.33,0.064,2.453-0.08,3.452-0.346
	c0.001,1.152-0.302,2.001-0.576,2.877c-0.738,0.052-1.636,0.346-2.185,0.229c-0.309,0.19-0.414,0.583-0.691,0.805
	c-0.055,0.51,0.158,0.571,0,0.92c-0.225,0.158-0.062,0.706-0.229,0.921v1.727c0.095,0.324-0.162,0.297-0.114,0.574v4.026
	c-0.096,0.325,0.162,0.298,0.114,0.576v3.451c0.071,0.312-0.146,0.912,0.114,1.034c-0.078,0.421-0.459-0.023-0.92,0.115
	c-0.59,0.141-1.032,0.427-1.727,0.461c0.131-0.406,0.357-0.717,0.347-1.266c0.054-0.439-0.407-0.36-0.575-0.575
	c0.215-0.743,0.627-1.29,0.805-2.07c0.221-0.594,0.797-1.498,0.345-2.071c-0.583-0.121-0.581,0.34-0.921,0.461
	c-0.025,0.089-0.002,0.227-0.114,0.229c-0.026,0.089-0.003,0.227-0.114,0.23c0.012,0.139-0.168,0.07,0,0
	c0.024-0.091,0.002-0.228,0.114-0.23c0.026-0.09,0.003-0.228,0.114-0.229v-0.346c0.411-0.664,0.748-1.401,0.921-2.301
	c0.214-0.323,0.316-0.758,0.46-1.151c0.175-0.302,0.379-1.003,0.116-1.38c-0.576,0.039-0.887,0.342-1.036,0.805
	c-0.357-0.219,0.18-0.5,0.115-0.805c0.154-0.267,0.189-0.652,0.345-0.92c0.226-0.477,0.63-1.504,0-1.841
	c-0.487-0.027-0.683,0.239-0.806,0.574c-0.238,0.222-0.479,0.441-0.575,0.806c-0.417-0.081-0.159-0.839-0.229-1.266
	c-0.075-0.6,0.137-1.039,0-1.38c-0.625-0.923-2.26-0.122-3.566-0.345c-0.121-0.354-0.248-1.137-0.115-1.381
	c1.165-0.102,2.764,0.232,3.566-0.23c0.026-0.09,0.003-0.227,0.115-0.229c0.104-0.835-0.303-1.154-0.574-1.611
	c0.258-0.931,0.045-2.332,0.114-3.451c0.261-0.161,0.366-0.478,0.575-0.69c0.125-1.102,0.75-1.703,0.805-2.876
	c-0.305,0.001-0.678-0.063-0.69,0.23c-0.337-0.133-0.426,0.552-0.574,0.229c-0.126-0.624,0.274-0.723,0.345-1.15
	c0.668-0.482,1.352-0.947,2.07-1.38c1.943-0.282,5.184-0.519,6.789,0.229C22.562,3.138,22.185,3.412,22.274,4.154z"></path>
  </g>
</svg>